<?xml version="1.0" encoding="utf-8"?>
<!-- Generator: Adobe Illustrator 23.0.3, SVG Export Plug-In . SVG Version: 6.00 Build 0)  -->
<svg version="1.1" xmlns="http://www.w3.org/2000/svg" xmlns:xlink="http://www.w3.org/1999/xlink" x="0px" y="0px"
	 viewBox="0 0 142.33 54.769" style="enable-background:new 0 0 142.33 54.769;" xml:space="preserve">
<style type="text/css">
	.st0{fill:url(#SVGID_1_);}
	.st1{fill:url(#SVGID_2_);}
	.st2{fill:none;stroke:#160C0C;stroke-width:4;stroke-miterlimit:10;}
	.st3{fill:#160C0C;}
	.st4{fill:none;stroke:#160C0C;stroke-width:0.5;stroke-miterlimit:10;}
</style>
<g id="Layer_4">
</g>
<g id="tex">
</g>
<g id="divider">
	<g>
		<linearGradient id="SVGID_1_" gradientUnits="userSpaceOnUse" x1="21.7189" y1="16.8298" x2="21.7189" y2="21.7695">
			<stop  offset="0" style="stop-color:#04B1D8"/>
			<stop  offset="1" style="stop-color:#0377BF"/>
		</linearGradient>
		<path class="st0" d="M9.415,17.911c6.353,5.449,16.741,4.177,24.607,0.813c-4.856,0.151-9.558-1.588-14.297-2.355
			c-3.03-0.491-7.023-1.13-9.84,0.53L9.415,17.911z"/>
		<linearGradient id="SVGID_2_" gradientUnits="userSpaceOnUse" x1="24.3309" y1="38.4787" x2="24.3109" y2="21.6491">
			<stop  offset="0" style="stop-color:#0377BF"/>
			<stop  offset="0.345" style="stop-color:#0388C6"/>
			<stop  offset="1" style="stop-color:#04B1D8"/>
		</linearGradient>
		<path class="st1" d="M9.416,17.908c4.339,3.242,9.648,4.029,14.914,3.328c2.78-0.37,5.598-1.064,8.237-2.005
			c2.147-0.766,4.089-1.795,6.431-1.861c3.555,9.484-3.185,20.368-13.294,21.36C14.911,39.789,5.972,28.094,9.416,17.908z"/>
		<path class="st2" d="M43.236,15.688c4.823,13.06-5.993,28.031-19.958,27.27C9.978,42.233,0.923,27.294,5.856,15.042"/>
		<g>
			<path class="st3" d="M66.237,42.122v-18.62h-1.96v-3.593h1.96v-0.613c0-1.144,0.04-2.982,0.601-4.493s1.684-2.736,4.048-2.736
				c0.641,0,1.082,0.041,1.403,0.163l0.481,0.122v3.701c-0.111-0.037-0.221-0.037-0.332-0.074c-0.258-0.037-0.517-0.074-0.775-0.074
				c-0.627,0-0.922,0.554-1.07,1.255c-0.074,0.369-0.111,0.738-0.111,1.107c0,0.369,0,0.852,0,1.089v0.553h1.96v3.593h-1.96v18.62
				H66.237z"/>
			<path class="st3" d="M81.264,19.909h4.247v22.213h-4.247v-1.868c-0.083,0.041-0.248,0.203-0.455,0.406
				c-0.496,0.487-1.075,1.056-1.819,1.462c-0.372,0.203-0.744,0.325-1.117,0.325c-1.116,0-1.902-0.65-2.398-1.503
				c-0.496-0.812-0.744-1.909-0.744-2.843V19.909h4.247v17.685c0,0.858,0.481,0.98,0.963,0.98c0.441,0,0.682-0.245,0.963-0.531
				c0.12-0.123,0.241-0.327,0.361-0.531V19.909z"/>
			<path class="st3" d="M88.451,42.122V12.069h4.247v30.053H88.451z"/>
			<path class="st3" d="M95.964,42.122V12.069h4.247v30.053H95.964z"/>
			<path class="st3" d="M109.684,25.236c0.007-0.368,0.007-0.939-0.115-1.348c-0.163-0.408-0.49-0.694-1.021-0.694
				c-0.694,0-0.98,0.531-1.102,1.184c-0.041,0.327-0.048,1.062-0.048,1.062s0,0.676,0,1.002h-4.247v-0.954
				c0-1.659,0.605-3.151,1.574-4.271c0.969-1.12,2.341-1.783,3.915-1.783c1.332,0,2.543,0.539,3.471,1.451
				c0.928,0.912,1.493,2.198,1.493,3.691v13.933c0,2.032,0.121,2.944,0.283,3.939h-3.828c0,0-0.368-1.693-0.368-1.96h-0.286
				c-0.204,0.349-0.571,0.88-1.143,1.329c-0.572,0.449-1.347,0.776-2.164,0.776c-0.531,0-1.388-0.204-2.041-1.021
				c-0.694-0.776-1.266-2.165-1.266-4.493c0-2.491,0.735-4.289,1.715-5.514c0.98-1.225,2.204-2.001,3.225-2.532
				c1.021-0.531,1.796-0.899,1.953-1.348V25.236z M109.684,31.485c-2.001,0.858-2.858,2.859-2.858,4.983
				c0,0.286,0.041,0.776,0.204,1.225c0.163,0.49,0.449,0.858,0.939,0.858c0.939,0,1.715-0.572,1.715-1.348V31.485z"/>
			<path class="st3" d="M123.077,19.909h3.92v22.213h-3.92v-1.868c-0.083,0.041-0.248,0.203-0.455,0.406
				c-0.496,0.487-1.075,1.056-1.819,1.462c-0.372,0.203-0.744,0.325-1.117,0.325c-1.116,0-1.902-0.65-2.398-1.503
				c-0.496-0.812-0.744-1.909-0.744-2.843V19.909h4.247v17.685c0,0.858,0.481,0.98,0.963,0.98c0.441,0,0.682-0.245,0.963-0.531
				c0.12-0.123,0.241-0.327,0.361-0.531V19.909z"/>
			<path class="st3" d="M132.907,30.67l-3.491-10.761h3.858l1.479,5.263l0.123,0.617h0.082l0.123-0.617l1.48-5.263h3.858
				L136.93,30.67l3.815,11.452h-4.002l-1.662-5.598l-0.122-0.608h-0.081l-0.122,0.608l-1.662,5.598h-4.002L132.907,30.67z"/>
		</g>
		<path class="st4" d="M55.294,3.249v49"/>
	</g>
</g>
</svg>
